<?xml version="1.0" encoding="UTF-8"?>
<!DOCTYPE svg PUBLIC "-//W3C//DTD SVG 1.1//EN" "http://www.w3.org/Graphics/SVG/1.1/DTD/svg11.dtd">
<svg version="1.2" width="270.4mm" height="91.9mm" viewBox="0 0 27040 9190" preserveAspectRatio="xMidYMid" fill-rule="evenodd" stroke-width="28.222" stroke-linejoin="round" xmlns="http://www.w3.org/2000/svg" xmlns:ooo="http://xml.openoffice.org/svg/export" xmlns:xlink="http://www.w3.org/1999/xlink" xmlns:presentation="http://sun.com/xmlns/staroffice/presentation" xmlns:smil="http://www.w3.org/2001/SMIL20/" xmlns:anim="urn:oasis:names:tc:opendocument:xmlns:animation:1.0" xml:space="preserve">
 <defs class="ClipPathGroup">
  <clipPath id="presentation_clip_path" clipPathUnits="userSpaceOnUse">
   <rect x="0" y="0" width="27040" height="9190"/>
  </clipPath>
  <clipPath id="presentation_clip_path_shrink" clipPathUnits="userSpaceOnUse">
   <rect x="27" y="9" width="26986" height="9172"/>
  </clipPath>
 </defs>
 <defs class="TextShapeIndex">
  <g ooo:slide="id1" ooo:id-list="id3 id4 id5 id6 id7 id8 id9 id10 id11 id12 id13 id14 id15 id16 id17 id18 id19 id20 id21"/>
 </defs>
 <defs class="EmbeddedBulletChars">
  <g id="bullet-char-template-57356" transform="scale(0.00048828125,-0.00048828125)">
   <path d="M 580,1141 L 1163,571 580,0 -4,571 580,1141 Z"/>
  </g>
  <g id="bullet-char-template-57354" transform="scale(0.00048828125,-0.00048828125)">
   <path d="M 8,1128 L 1137,1128 1137,0 8,0 8,1128 Z"/>
  </g>
  <g id="bullet-char-template-10146" transform="scale(0.00048828125,-0.00048828125)">
   <path d="M 174,0 L 602,739 174,1481 1456,739 174,0 Z M 1358,739 L 309,1346 659,739 1358,739 Z"/>
  </g>
  <g id="bullet-char-template-10132" transform="scale(0.00048828125,-0.00048828125)">
   <path d="M 2015,739 L 1276,0 717,0 1260,543 174,543 174,936 1260,936 717,1481 1274,1481 2015,739 Z"/>
  </g>
  <g id="bullet-char-template-10007" transform="scale(0.00048828125,-0.00048828125)">
   <path d="M 0,-2 C -7,14 -16,27 -25,37 L 356,567 C 262,823 215,952 215,954 215,979 228,992 255,992 264,992 276,990 289,987 310,991 331,999 354,1012 L 381,999 492,748 772,1049 836,1024 860,1049 C 881,1039 901,1025 922,1006 886,937 835,863 770,784 769,783 710,716 594,584 L 774,223 C 774,196 753,168 711,139 L 727,119 C 717,90 699,76 672,76 641,76 570,178 457,381 L 164,-76 C 142,-110 111,-127 72,-127 30,-127 9,-110 8,-76 1,-67 -2,-52 -2,-32 -2,-23 -1,-13 0,-2 Z"/>
  </g>
  <g id="bullet-char-template-10004" transform="scale(0.00048828125,-0.00048828125)">
   <path d="M 285,-33 C 182,-33 111,30 74,156 52,228 41,333 41,471 41,549 55,616 82,672 116,743 169,778 240,778 293,778 328,747 346,684 L 369,508 C 377,444 397,411 428,410 L 1163,1116 C 1174,1127 1196,1133 1229,1133 1271,1133 1292,1118 1292,1087 L 1292,965 C 1292,929 1282,901 1262,881 L 442,47 C 390,-6 338,-33 285,-33 Z"/>
  </g>
  <g id="bullet-char-template-9679" transform="scale(0.00048828125,-0.00048828125)">
   <path d="M 813,0 C 632,0 489,54 383,161 276,268 223,411 223,592 223,773 276,916 383,1023 489,1130 632,1184 813,1184 992,1184 1136,1130 1245,1023 1353,916 1407,772 1407,592 1407,412 1353,268 1245,161 1136,54 992,0 813,0 Z"/>
  </g>
  <g id="bullet-char-template-8226" transform="scale(0.00048828125,-0.00048828125)">
   <path d="M 346,457 C 273,457 209,483 155,535 101,586 74,649 74,723 74,796 101,859 155,911 209,963 273,989 346,989 419,989 480,963 531,910 582,859 608,796 608,723 608,648 583,586 532,535 482,483 420,457 346,457 Z"/>
  </g>
  <g id="bullet-char-template-8211" transform="scale(0.00048828125,-0.00048828125)">
   <path d="M -4,459 L 1135,459 1135,606 -4,606 -4,459 Z"/>
  </g>
  <g id="bullet-char-template-61548" transform="scale(0.00048828125,-0.00048828125)">
   <path d="M 173,740 C 173,903 231,1043 346,1159 462,1274 601,1332 765,1332 928,1332 1067,1274 1183,1159 1299,1043 1357,903 1357,740 1357,577 1299,437 1183,322 1067,206 928,148 765,148 601,148 462,206 346,322 231,437 173,577 173,740 Z"/>
  </g>
 </defs>
 <g>
  <g id="id2" class="Master_Slide">
   <g id="bg-id2" class="Background"/>
   <g id="bo-id2" class="BackgroundObjects"/>
  </g>
 </g>
 <g class="SlideGroup">
  <g>
   <g id="container-id1">
    <g id="id1" class="Slide" clip-path="url(#presentation_clip_path)">
     <g class="Page">
      <g class="com.sun.star.drawing.CustomShape">
       <g id="id3">
        <rect class="BoundingBox" stroke="none" fill="none" x="1639" y="3639" width="3004" height="1004"/>
        <path fill="rgb(255,0,0)" stroke="none" d="M 1806,3640 L 1807,3640 C 1778,3640 1749,3648 1723,3662 1698,3677 1677,3698 1662,3723 1648,3749 1640,3778 1640,3807 L 1640,4474 1640,4474 C 1640,4503 1648,4532 1662,4558 1677,4583 1698,4604 1723,4619 1749,4633 1778,4641 1807,4641 L 4474,4641 4474,4641 C 4503,4641 4532,4633 4558,4619 4583,4604 4604,4583 4619,4558 4633,4532 4641,4503 4641,4474 L 4641,3806 4641,3807 4641,3807 C 4641,3778 4633,3749 4619,3723 4604,3698 4583,3677 4558,3662 4532,3648 4503,3640 4474,3640 L 1806,3640 Z"/>
        <path fill="none" stroke="rgb(255,0,0)" d="M 1806,3640 L 1807,3640 C 1778,3640 1749,3648 1723,3662 1698,3677 1677,3698 1662,3723 1648,3749 1640,3778 1640,3807 L 1640,4474 1640,4474 C 1640,4503 1648,4532 1662,4558 1677,4583 1698,4604 1723,4619 1749,4633 1778,4641 1807,4641 L 4474,4641 4474,4641 C 4503,4641 4532,4633 4558,4619 4583,4604 4604,4583 4619,4558 4633,4532 4641,4503 4641,4474 L 4641,3806 4641,3807 4641,3807 C 4641,3778 4633,3749 4619,3723 4604,3698 4583,3677 4558,3662 4532,3648 4503,3640 4474,3640 L 1806,3640 Z"/>
       </g>
      </g>
      <g class="com.sun.star.drawing.CustomShape">
       <g id="id4">
        <rect class="BoundingBox" stroke="none" fill="none" x="8639" y="1639" width="4004" height="1004"/>
        <path fill="rgb(0,169,51)" stroke="none" d="M 8806,1640 L 8807,1640 C 8778,1640 8749,1648 8723,1662 8698,1677 8677,1698 8662,1723 8648,1749 8640,1778 8640,1807 L 8640,2474 8640,2474 C 8640,2503 8648,2532 8662,2558 8677,2583 8698,2604 8723,2619 8749,2633 8778,2641 8807,2641 L 12474,2641 12474,2641 C 12503,2641 12532,2633 12558,2619 12583,2604 12604,2583 12619,2558 12633,2532 12641,2503 12641,2474 L 12640,1806 12641,1807 12641,1807 C 12641,1778 12633,1749 12619,1723 12604,1698 12583,1677 12558,1662 12532,1648 12503,1640 12474,1640 L 8806,1640 Z"/>
        <path fill="none" stroke="rgb(0,169,51)" d="M 8806,1640 L 8807,1640 C 8778,1640 8749,1648 8723,1662 8698,1677 8677,1698 8662,1723 8648,1749 8640,1778 8640,1807 L 8640,2474 8640,2474 C 8640,2503 8648,2532 8662,2558 8677,2583 8698,2604 8723,2619 8749,2633 8778,2641 8807,2641 L 12474,2641 12474,2641 C 12503,2641 12532,2633 12558,2619 12583,2604 12604,2583 12619,2558 12633,2532 12641,2503 12641,2474 L 12640,1806 12641,1807 12641,1807 C 12641,1778 12633,1749 12619,1723 12604,1698 12583,1677 12558,1662 12532,1648 12503,1640 12474,1640 L 8806,1640 Z"/>
       </g>
      </g>
      <g class="com.sun.star.drawing.CustomShape">
       <g id="id5">
        <rect class="BoundingBox" stroke="none" fill="none" x="14639" y="1639" width="3004" height="1004"/>
        <path fill="rgb(0,169,51)" stroke="none" d="M 14806,1640 L 14807,1640 C 14778,1640 14749,1648 14723,1662 14698,1677 14677,1698 14662,1723 14648,1749 14640,1778 14640,1807 L 14640,2474 14640,2474 C 14640,2503 14648,2532 14662,2558 14677,2583 14698,2604 14723,2619 14749,2633 14778,2641 14807,2641 L 17474,2641 17474,2641 C 17503,2641 17532,2633 17558,2619 17583,2604 17604,2583 17619,2558 17633,2532 17641,2503 17641,2474 L 17641,1806 17641,1807 17641,1807 C 17641,1778 17633,1749 17619,1723 17604,1698 17583,1677 17558,1662 17532,1648 17503,1640 17474,1640 L 14806,1640 Z"/>
        <path fill="none" stroke="rgb(0,169,51)" d="M 14806,1640 L 14807,1640 C 14778,1640 14749,1648 14723,1662 14698,1677 14677,1698 14662,1723 14648,1749 14640,1778 14640,1807 L 14640,2474 14640,2474 C 14640,2503 14648,2532 14662,2558 14677,2583 14698,2604 14723,2619 14749,2633 14778,2641 14807,2641 L 17474,2641 17474,2641 C 17503,2641 17532,2633 17558,2619 17583,2604 17604,2583 17619,2558 17633,2532 17641,2503 17641,2474 L 17641,1806 17641,1807 17641,1807 C 17641,1778 17633,1749 17619,1723 17604,1698 17583,1677 17558,1662 17532,1648 17503,1640 17474,1640 L 14806,1640 Z"/>
       </g>
      </g>
      <g class="com.sun.star.drawing.CustomShape">
       <g id="id6">
        <rect class="BoundingBox" stroke="none" fill="none" x="6739" y="3639" width="5004" height="1004"/>
        <path fill="rgb(0,169,51)" stroke="none" d="M 6906,3640 L 6907,3640 C 6878,3640 6849,3648 6823,3662 6798,3677 6777,3698 6762,3723 6748,3749 6740,3778 6740,3807 L 6740,4474 6740,4474 C 6740,4503 6748,4532 6762,4558 6777,4583 6798,4604 6823,4619 6849,4633 6878,4641 6907,4641 L 11574,4641 11574,4641 C 11603,4641 11632,4633 11658,4619 11683,4604 11704,4583 11719,4558 11733,4532 11741,4503 11741,4474 L 11741,3806 11741,3807 11741,3807 C 11741,3778 11733,3749 11719,3723 11704,3698 11683,3677 11658,3662 11632,3648 11603,3640 11574,3640 L 6906,3640 Z"/>
        <path fill="none" stroke="rgb(0,169,51)" d="M 6906,3640 L 6907,3640 C 6878,3640 6849,3648 6823,3662 6798,3677 6777,3698 6762,3723 6748,3749 6740,3778 6740,3807 L 6740,4474 6740,4474 C 6740,4503 6748,4532 6762,4558 6777,4583 6798,4604 6823,4619 6849,4633 6878,4641 6907,4641 L 11574,4641 11574,4641 C 11603,4641 11632,4633 11658,4619 11683,4604 11704,4583 11719,4558 11733,4532 11741,4503 11741,4474 L 11741,3806 11741,3807 11741,3807 C 11741,3778 11733,3749 11719,3723 11704,3698 11683,3677 11658,3662 11632,3648 11603,3640 11574,3640 L 6906,3640 Z"/>
       </g>
      </g>
      <g class="com.sun.star.drawing.CustomShape">
       <g id="id7">
        <rect class="BoundingBox" stroke="none" fill="none" x="17639" y="3639" width="1004" height="1004"/>
        <path fill="rgb(0,169,51)" stroke="none" d="M 17806,3640 L 17807,3640 C 17778,3640 17749,3648 17723,3662 17698,3677 17677,3698 17662,3723 17648,3749 17640,3778 17640,3807 L 17640,4474 17640,4474 C 17640,4503 17648,4532 17662,4558 17677,4583 17698,4604 17723,4619 17749,4633 17778,4641 17807,4641 L 18474,4641 18474,4641 C 18503,4641 18532,4633 18558,4619 18583,4604 18604,4583 18619,4558 18633,4532 18641,4503 18641,4474 L 18641,3806 18641,3807 18641,3807 C 18641,3778 18633,3749 18619,3723 18604,3698 18583,3677 18558,3662 18532,3648 18503,3640 18474,3640 L 17806,3640 Z"/>
        <path fill="none" stroke="rgb(0,169,51)" d="M 17806,3640 L 17807,3640 C 17778,3640 17749,3648 17723,3662 17698,3677 17677,3698 17662,3723 17648,3749 17640,3778 17640,3807 L 17640,4474 17640,4474 C 17640,4503 17648,4532 17662,4558 17677,4583 17698,4604 17723,4619 17749,4633 17778,4641 17807,4641 L 18474,4641 18474,4641 C 18503,4641 18532,4633 18558,4619 18583,4604 18604,4583 18619,4558 18633,4532 18641,4503 18641,4474 L 18641,3806 18641,3807 18641,3807 C 18641,3778 18633,3749 18619,3723 18604,3698 18583,3677 18558,3662 18532,3648 18503,3640 18474,3640 L 17806,3640 Z"/>
       </g>
      </g>
      <g class="com.sun.star.drawing.ConnectorShape">
       <g id="id8">
        <rect class="BoundingBox" stroke="none" fill="none" x="4639" y="3990" width="2102" height="301"/>
        <path fill="none" stroke="rgb(255,0,0)" d="M 4640,4140 L 6310,4140"/>
        <path fill="rgb(255,0,0)" stroke="none" d="M 6740,4140 L 6290,3990 6290,4290 6740,4140 Z"/>
       </g>
      </g>
      <g class="com.sun.star.drawing.ConnectorShape">
       <g id="id9">
        <rect class="BoundingBox" stroke="none" fill="none" x="4639" y="4139" width="2002" height="3002"/>
        <path fill="none" stroke="rgb(255,0,0)" d="M 4640,4140 C 6516,4140 5743,6349 6276,6976"/>
        <path fill="rgb(255,0,0)" stroke="none" d="M 6640,7140 L 6298,6811 6169,7082 6640,7140 Z"/>
       </g>
      </g>
      <g class="com.sun.star.drawing.ConnectorShape">
       <g id="id10">
        <rect class="BoundingBox" stroke="none" fill="none" x="4639" y="2008" width="4002" height="2134"/>
        <path fill="none" stroke="rgb(255,0,0)" d="M 4640,4140 C 7641,4140 5847,2354 8189,2158"/>
        <path fill="rgb(255,0,0)" stroke="none" d="M 8640,2140 L 8184,2008 8196,2308 8640,2140 Z"/>
       </g>
      </g>
      <g class="com.sun.star.drawing.ConnectorShape">
       <g id="id11">
        <rect class="BoundingBox" stroke="none" fill="none" x="12639" y="1990" width="2002" height="301"/>
        <path fill="none" stroke="rgb(0,169,51)" d="M 12640,2140 L 14210,2140"/>
        <path fill="rgb(0,169,51)" stroke="none" d="M 14640,2140 L 14190,1990 14190,2290 14640,2140 Z"/>
       </g>
      </g>
      <g class="com.sun.star.drawing.CustomShape">
       <g id="id12">
        <rect class="BoundingBox" stroke="none" fill="none" x="22639" y="3739" width="3004" height="1004"/>
        <path fill="rgb(114,159,207)" stroke="none" d="M 22806,3740 L 22807,3740 C 22778,3740 22749,3748 22723,3762 22698,3777 22677,3798 22662,3823 22648,3849 22640,3878 22640,3907 L 22640,4574 22640,4574 C 22640,4603 22648,4632 22662,4658 22677,4683 22698,4704 22723,4719 22749,4733 22778,4741 22807,4741 L 25474,4741 25474,4741 C 25503,4741 25532,4733 25558,4719 25583,4704 25604,4683 25619,4658 25633,4632 25641,4603 25641,4574 L 25641,3906 25641,3907 25641,3907 C 25641,3878 25633,3849 25619,3823 25604,3798 25583,3777 25558,3762 25532,3748 25503,3740 25474,3740 L 22806,3740 Z"/>
        <path fill="none" stroke="rgb(52,101,164)" d="M 22806,3740 L 22807,3740 C 22778,3740 22749,3748 22723,3762 22698,3777 22677,3798 22662,3823 22648,3849 22640,3878 22640,3907 L 22640,4574 22640,4574 C 22640,4603 22648,4632 22662,4658 22677,4683 22698,4704 22723,4719 22749,4733 22778,4741 22807,4741 L 25474,4741 25474,4741 C 25503,4741 25532,4733 25558,4719 25583,4704 25604,4683 25619,4658 25633,4632 25641,4603 25641,4574 L 25641,3906 25641,3907 25641,3907 C 25641,3878 25633,3849 25619,3823 25604,3798 25583,3777 25558,3762 25532,3748 25503,3740 25474,3740 L 22806,3740 Z"/>
       </g>
      </g>
      <g class="com.sun.star.drawing.CustomShape">
       <g id="id13">
        <rect class="BoundingBox" stroke="none" fill="none" x="6639" y="6639" width="2004" height="1004"/>
        <path fill="rgb(0,169,51)" stroke="none" d="M 6806,6640 L 6807,6640 C 6778,6640 6749,6648 6723,6662 6698,6677 6677,6698 6662,6723 6648,6749 6640,6778 6640,6807 L 6640,7474 6640,7474 C 6640,7503 6648,7532 6662,7558 6677,7583 6698,7604 6723,7619 6749,7633 6778,7641 6807,7641 L 8474,7641 8474,7641 C 8503,7641 8532,7633 8558,7619 8583,7604 8604,7583 8619,7558 8633,7532 8641,7503 8641,7474 L 8641,6806 8641,6807 8641,6807 C 8641,6778 8633,6749 8619,6723 8604,6698 8583,6677 8558,6662 8532,6648 8503,6640 8474,6640 L 6806,6640 Z"/>
        <path fill="none" stroke="rgb(0,169,51)" d="M 6806,6640 L 6807,6640 C 6778,6640 6749,6648 6723,6662 6698,6677 6677,6698 6662,6723 6648,6749 6640,6778 6640,6807 L 6640,7474 6640,7474 C 6640,7503 6648,7532 6662,7558 6677,7583 6698,7604 6723,7619 6749,7633 6778,7641 6807,7641 L 8474,7641 8474,7641 C 8503,7641 8532,7633 8558,7619 8583,7604 8604,7583 8619,7558 8633,7532 8641,7503 8641,7474 L 8641,6806 8641,6807 8641,6807 C 8641,6778 8633,6749 8619,6723 8604,6698 8583,6677 8558,6662 8532,6648 8503,6640 8474,6640 L 6806,6640 Z"/>
       </g>
      </g>
      <g class="com.sun.star.drawing.CustomShape">
       <g id="id14">
        <rect class="BoundingBox" stroke="none" fill="none" x="11539" y="6639" width="5004" height="1004"/>
        <path fill="rgb(0,169,51)" stroke="none" d="M 11706,6640 L 11707,6640 C 11678,6640 11649,6648 11623,6662 11598,6677 11577,6698 11562,6723 11548,6749 11540,6778 11540,6807 L 11540,7474 11540,7474 C 11540,7503 11548,7532 11562,7558 11577,7583 11598,7604 11623,7619 11649,7633 11678,7641 11707,7641 L 16374,7641 16374,7641 C 16403,7641 16432,7633 16458,7619 16483,7604 16504,7583 16519,7558 16533,7532 16541,7503 16541,7474 L 16541,6806 16541,6807 16541,6807 C 16541,6778 16533,6749 16519,6723 16504,6698 16483,6677 16458,6662 16432,6648 16403,6640 16374,6640 L 11706,6640 Z"/>
        <path fill="none" stroke="rgb(0,169,51)" d="M 11706,6640 L 11707,6640 C 11678,6640 11649,6648 11623,6662 11598,6677 11577,6698 11562,6723 11548,6749 11540,6778 11540,6807 L 11540,7474 11540,7474 C 11540,7503 11548,7532 11562,7558 11577,7583 11598,7604 11623,7619 11649,7633 11678,7641 11707,7641 L 16374,7641 16374,7641 C 16403,7641 16432,7633 16458,7619 16483,7604 16504,7583 16519,7558 16533,7532 16541,7503 16541,7474 L 16541,6806 16541,6807 16541,6807 C 16541,6778 16533,6749 16519,6723 16504,6698 16483,6677 16458,6662 16432,6648 16403,6640 16374,6640 L 11706,6640 Z"/>
       </g>
      </g>
      <g class="com.sun.star.drawing.CustomShape">
       <g id="id15">
        <rect class="BoundingBox" stroke="none" fill="none" x="13639" y="3639" width="2004" height="1004"/>
        <path fill="rgb(0,169,51)" stroke="none" d="M 13806,3640 L 13807,3640 C 13778,3640 13749,3648 13723,3662 13698,3677 13677,3698 13662,3723 13648,3749 13640,3778 13640,3807 L 13640,4474 13640,4474 C 13640,4503 13648,4532 13662,4558 13677,4583 13698,4604 13723,4619 13749,4633 13778,4641 13807,4641 L 15474,4641 15474,4641 C 15503,4641 15532,4633 15558,4619 15583,4604 15604,4583 15619,4558 15633,4532 15641,4503 15641,4474 L 15641,3806 15641,3807 15641,3807 C 15641,3778 15633,3749 15619,3723 15604,3698 15583,3677 15558,3662 15532,3648 15503,3640 15474,3640 L 13806,3640 Z"/>
        <path fill="none" stroke="rgb(0,169,51)" d="M 13806,3640 L 13807,3640 C 13778,3640 13749,3648 13723,3662 13698,3677 13677,3698 13662,3723 13648,3749 13640,3778 13640,3807 L 13640,4474 13640,4474 C 13640,4503 13648,4532 13662,4558 13677,4583 13698,4604 13723,4619 13749,4633 13778,4641 13807,4641 L 15474,4641 15474,4641 C 15503,4641 15532,4633 15558,4619 15583,4604 15604,4583 15619,4558 15633,4532 15641,4503 15641,4474 L 15641,3806 15641,3807 15641,3807 C 15641,3778 15633,3749 15619,3723 15604,3698 15583,3677 15558,3662 15532,3648 15503,3640 15474,3640 L 13806,3640 Z"/>
       </g>
      </g>
      <g class="com.sun.star.drawing.ConnectorShape">
       <g id="id16">
        <rect class="BoundingBox" stroke="none" fill="none" x="8639" y="6990" width="2902" height="301"/>
        <path fill="none" stroke="rgb(0,169,51)" d="M 8640,7140 L 11110,7140"/>
        <path fill="rgb(0,169,51)" stroke="none" d="M 11540,7140 L 11090,6990 11090,7290 11540,7140 Z"/>
       </g>
      </g>
      <g class="com.sun.star.drawing.ConnectorShape">
       <g id="id17">
        <rect class="BoundingBox" stroke="none" fill="none" x="11739" y="3990" width="1902" height="301"/>
        <path fill="none" stroke="rgb(0,169,51)" d="M 11740,4140 L 13210,4140"/>
        <path fill="rgb(0,169,51)" stroke="none" d="M 13640,4140 L 13190,3990 13190,4290 13640,4140 Z"/>
       </g>
      </g>
      <g class="com.sun.star.drawing.ConnectorShape">
       <g id="id18">
        <rect class="BoundingBox" stroke="none" fill="none" x="15639" y="3990" width="2002" height="301"/>
        <path fill="none" stroke="rgb(0,169,51)" d="M 15640,4140 L 17210,4140"/>
        <path fill="rgb(0,169,51)" stroke="none" d="M 17640,4140 L 17190,3990 17190,4290 17640,4140 Z"/>
       </g>
      </g>
      <g class="com.sun.star.drawing.ConnectorShape">
       <g id="id19">
        <rect class="BoundingBox" stroke="none" fill="none" x="17639" y="2139" width="5002" height="2240"/>
        <path fill="none" stroke="rgb(52,101,164)" d="M 17640,2140 C 21391,2140 19100,4059 22180,4228"/>
        <path fill="rgb(52,101,164)" stroke="none" d="M 22640,4240 L 22194,4078 22186,4378 22640,4240 Z"/>
       </g>
      </g>
      <g class="com.sun.star.drawing.ConnectorShape">
       <g id="id20">
        <rect class="BoundingBox" stroke="none" fill="none" x="18639" y="4089" width="4002" height="302"/>
        <path fill="none" stroke="rgb(52,101,164)" d="M 18640,4140 C 21641,4140 19852,4229 22177,4239"/>
        <path fill="rgb(52,101,164)" stroke="none" d="M 22640,4240 L 22190,4089 22190,4389 22640,4240 Z"/>
       </g>
      </g>
      <g class="com.sun.star.drawing.ConnectorShape">
       <g id="id21">
        <rect class="BoundingBox" stroke="none" fill="none" x="16539" y="4101" width="6102" height="3041"/>
        <path fill="none" stroke="rgb(52,101,164)" d="M 16540,7140 C 21116,7140 18275,4443 22179,4251"/>
        <path fill="rgb(52,101,164)" stroke="none" d="M 22640,4240 L 22186,4101 22194,4401 22640,4240 Z"/>
       </g>
      </g>
     </g>
    </g>
   </g>
  </g>
 </g>
</svg>