<?xml version="1.0" encoding="UTF-8" standalone="no"?>
<!DOCTYPE svg PUBLIC "-//W3C//DTD SVG 1.1//EN"
 "http://www.w3.org/Graphics/SVG/1.1/DTD/svg11.dtd">
<!-- Generated by graphviz version 2.44.0 (0)
 -->
<!-- Title: snakemake_dag Pages: 1 -->
<svg width="445pt" height="404pt"
 viewBox="0.00 0.00 445.39 404.00" xmlns="http://www.w3.org/2000/svg" xmlns:xlink="http://www.w3.org/1999/xlink">
<g id="graph0" class="graph" transform="scale(1 1) rotate(0) translate(4 400)">
<title>snakemake_dag</title>
<polygon fill="white" stroke="transparent" points="-4,4 -4,-400 441.39,-400 441.39,4 -4,4"/>
<!-- 0 -->
<g id="node1" class="node">
<title>0</title>
<path fill="none" stroke="#68d856" stroke-width="2" d="M197.39,-36C197.39,-36 111.39,-36 111.39,-36 105.39,-36 99.39,-30 99.39,-24 99.39,-24 99.39,-12 99.39,-12 99.39,-6 105.39,0 111.39,0 111.39,0 197.39,0 197.39,0 203.39,0 209.39,-6 209.39,-12 209.39,-12 209.39,-24 209.39,-24 209.39,-30 203.39,-36 197.39,-36"/>
<text text-anchor="middle" x="154.39" y="-15.5" font-family="sans" font-size="10.00">run_after_checkpoint</text>
</g>
<!-- 1 -->
<g id="node2" class="node">
<title>1</title>
<path fill="none" stroke="#56d8b9" stroke-width="2" d="M179.39,-108C179.39,-108 129.39,-108 129.39,-108 123.39,-108 117.39,-102 117.39,-96 117.39,-96 117.39,-84 117.39,-84 117.39,-78 123.39,-72 129.39,-72 129.39,-72 179.39,-72 179.39,-72 185.39,-72 191.39,-78 191.39,-84 191.39,-84 191.39,-96 191.39,-96 191.39,-102 185.39,-108 179.39,-108"/>
<text text-anchor="middle" x="154.39" y="-87.5" font-family="sans" font-size="10.00">generatePlot</text>
</g>
<!-- 1&#45;&gt;0 -->
<g id="edge1" class="edge">
<title>1&#45;&gt;0</title>
<path fill="none" stroke="grey" stroke-width="2" d="M154.39,-71.7C154.39,-63.98 154.39,-54.71 154.39,-46.11"/>
<polygon fill="grey" stroke="grey" stroke-width="2" points="157.89,-46.1 154.39,-36.1 150.89,-46.1 157.89,-46.1"/>
</g>
<!-- 2 -->
<g id="node3" class="node">
<title>2</title>
<path fill="none" stroke="#8fd856" stroke-width="2" d="M131.89,-180C131.89,-180 46.89,-180 46.89,-180 40.89,-180 34.89,-174 34.89,-168 34.89,-168 34.89,-156 34.89,-156 34.89,-150 40.89,-144 46.89,-144 46.89,-144 131.89,-144 131.89,-144 137.89,-144 143.89,-150 143.89,-156 143.89,-156 143.89,-168 143.89,-168 143.89,-174 137.89,-180 131.89,-180"/>
<text text-anchor="middle" x="89.39" y="-159.5" font-family="sans" font-size="10.00">compareMemIntron</text>
</g>
<!-- 2&#45;&gt;1 -->
<g id="edge2" class="edge">
<title>2&#45;&gt;1</title>
<path fill="none" stroke="grey" stroke-width="2" d="M105.46,-143.7C113.33,-135.22 122.95,-124.86 131.57,-115.58"/>
<polygon fill="grey" stroke="grey" stroke-width="2" points="134.27,-117.81 138.51,-108.1 129.14,-113.05 134.27,-117.81"/>
</g>
<!-- 3 -->
<g id="node4" class="node">
<title>3</title>
<path fill="none" stroke="#567bd8" stroke-width="2" d="M274.89,-180C274.89,-180 183.89,-180 183.89,-180 177.89,-180 171.89,-174 171.89,-168 171.89,-168 171.89,-156 171.89,-156 171.89,-150 177.89,-144 183.89,-144 183.89,-144 274.89,-144 274.89,-144 280.89,-144 286.89,-150 286.89,-156 286.89,-156 286.89,-168 286.89,-168 286.89,-174 280.89,-180 274.89,-180"/>
<text text-anchor="middle" x="229.39" y="-159.5" font-family="sans" font-size="10.00">compareMemNoExon</text>
</g>
<!-- 3&#45;&gt;1 -->
<g id="edge3" class="edge">
<title>3&#45;&gt;1</title>
<path fill="none" stroke="grey" stroke-width="2" d="M210.85,-143.7C201.59,-135.05 190.23,-124.45 180.14,-115.03"/>
<polygon fill="grey" stroke="grey" stroke-width="2" points="182.42,-112.37 172.72,-108.1 177.64,-117.49 182.42,-112.37"/>
</g>
<!-- 4 -->
<g id="node5" class="node">
<title>4</title>
<path fill="none" stroke="#56d892" stroke-width="2" d="M112.89,-252C112.89,-252 27.89,-252 27.89,-252 21.89,-252 15.89,-246 15.89,-240 15.89,-240 15.89,-228 15.89,-228 15.89,-222 21.89,-216 27.89,-216 27.89,-216 112.89,-216 112.89,-216 118.89,-216 124.89,-222 124.89,-228 124.89,-228 124.89,-240 124.89,-240 124.89,-246 118.89,-252 112.89,-252"/>
<text text-anchor="middle" x="70.39" y="-231.5" font-family="sans" font-size="10.00">generateMemIntron</text>
</g>
<!-- 4&#45;&gt;2 -->
<g id="edge4" class="edge">
<title>4&#45;&gt;2</title>
<path fill="none" stroke="grey" stroke-width="2" d="M75.09,-215.7C77.21,-207.9 79.76,-198.51 82.11,-189.83"/>
<polygon fill="grey" stroke="grey" stroke-width="2" points="85.51,-190.67 84.75,-180.1 78.75,-188.84 85.51,-190.67"/>
</g>
<!-- 5 -->
<g id="node6" class="node">
<title>5</title>
<path fill="none" stroke="#b6d856" stroke-width="2" d="M425.39,-252C425.39,-252 327.39,-252 327.39,-252 321.39,-252 315.39,-246 315.39,-240 315.39,-240 315.39,-228 315.39,-228 315.39,-222 321.39,-216 327.39,-216 327.39,-216 425.39,-216 425.39,-216 431.39,-216 437.39,-222 437.39,-228 437.39,-228 437.39,-240 437.39,-240 437.39,-246 431.39,-252 425.39,-252"/>
<text text-anchor="middle" x="376.39" y="-231.5" font-family="sans" font-size="10.00">generateMemNoIntron</text>
</g>
<!-- 5&#45;&gt;2 -->
<g id="edge6" class="edge">
<title>5&#45;&gt;2</title>
<path fill="none" stroke="grey" stroke-width="2" d="M315.18,-218.07C267.74,-206.5 202.18,-190.51 153.93,-178.74"/>
<polygon fill="grey" stroke="grey" stroke-width="2" points="154.76,-175.34 144.21,-176.37 153.1,-182.14 154.76,-175.34"/>
</g>
<!-- 5&#45;&gt;3 -->
<g id="edge9" class="edge">
<title>5&#45;&gt;3</title>
<path fill="none" stroke="grey" stroke-width="2" d="M340.43,-215.88C320.52,-206.39 295.57,-194.51 274.37,-184.42"/>
<polygon fill="grey" stroke="grey" stroke-width="2" points="275.77,-181.21 265.24,-180.07 272.76,-187.53 275.77,-181.21"/>
</g>
<!-- 6 -->
<g id="node7" class="node">
<title>6</title>
<path fill="none" stroke="#d8cb56" stroke-width="2" d="M172.39,-324C172.39,-324 124.39,-324 124.39,-324 118.39,-324 112.39,-318 112.39,-312 112.39,-312 112.39,-300 112.39,-300 112.39,-294 118.39,-288 124.39,-288 124.39,-288 172.39,-288 172.39,-288 178.39,-288 184.39,-294 184.39,-300 184.39,-300 184.39,-312 184.39,-312 184.39,-318 178.39,-324 172.39,-324"/>
<text text-anchor="middle" x="148.39" y="-303.5" font-family="sans" font-size="10.00">removeExon</text>
</g>
<!-- 6&#45;&gt;2 -->
<g id="edge5" class="edge">
<title>6&#45;&gt;2</title>
<path fill="none" stroke="grey" stroke-width="2" d="M112.32,-302.66C78.64,-298.34 30.1,-286.15 6.39,-252 -2.73,-238.86 -1.29,-230.03 6.39,-216 13.34,-203.33 24.74,-193.25 36.9,-185.43"/>
<polygon fill="grey" stroke="grey" stroke-width="2" points="39.02,-188.24 45.83,-180.13 35.45,-182.22 39.02,-188.24"/>
</g>
<!-- 6&#45;&gt;3 -->
<g id="edge7" class="edge">
<title>6&#45;&gt;3</title>
<path fill="none" stroke="grey" stroke-width="2" d="M150.17,-287.83C152.73,-269.05 158.76,-238.61 172.39,-216 178.94,-205.15 188.33,-195.14 197.61,-186.81"/>
<polygon fill="grey" stroke="grey" stroke-width="2" points="199.99,-189.38 205.31,-180.22 195.44,-184.06 199.99,-189.38"/>
</g>
<!-- 6&#45;&gt;4 -->
<g id="edge12" class="edge">
<title>6&#45;&gt;4</title>
<path fill="none" stroke="grey" stroke-width="2" d="M129.11,-287.7C119.48,-279.05 107.67,-268.45 97.17,-259.03"/>
<polygon fill="grey" stroke="grey" stroke-width="2" points="99.23,-256.18 89.45,-252.1 94.56,-261.39 99.23,-256.18"/>
</g>
<!-- 7 -->
<g id="node8" class="node">
<title>7</title>
<path fill="none" stroke="#d8a456" stroke-width="2" d="M284.89,-252C284.89,-252 193.89,-252 193.89,-252 187.89,-252 181.89,-246 181.89,-240 181.89,-240 181.89,-228 181.89,-228 181.89,-222 187.89,-216 193.89,-216 193.89,-216 284.89,-216 284.89,-216 290.89,-216 296.89,-222 296.89,-228 296.89,-228 296.89,-240 296.89,-240 296.89,-246 290.89,-252 284.89,-252"/>
<text text-anchor="middle" x="239.39" y="-231.5" font-family="sans" font-size="10.00">generateMemNoExon</text>
</g>
<!-- 6&#45;&gt;7 -->
<g id="edge18" class="edge">
<title>6&#45;&gt;7</title>
<path fill="none" stroke="grey" stroke-width="2" d="M170.89,-287.7C182.35,-278.88 196.45,-268.03 208.88,-258.47"/>
<polygon fill="grey" stroke="grey" stroke-width="2" points="211.37,-260.98 217.16,-252.1 207.1,-255.43 211.37,-260.98"/>
</g>
<!-- 7&#45;&gt;3 -->
<g id="edge8" class="edge">
<title>7&#45;&gt;3</title>
<path fill="none" stroke="grey" stroke-width="2" d="M236.92,-215.7C235.82,-207.98 234.5,-198.71 233.27,-190.11"/>
<polygon fill="grey" stroke="grey" stroke-width="2" points="236.72,-189.51 231.84,-180.1 229.79,-190.5 236.72,-189.51"/>
</g>
<!-- 8 -->
<g id="node9" class="node">
<title>8</title>
<path fill="none" stroke="#d87d56" stroke-width="2" d="M250.39,-396C250.39,-396 174.39,-396 174.39,-396 168.39,-396 162.39,-390 162.39,-384 162.39,-384 162.39,-372 162.39,-372 162.39,-366 168.39,-360 174.39,-360 174.39,-360 250.39,-360 250.39,-360 256.39,-360 262.39,-366 262.39,-372 262.39,-372 262.39,-384 262.39,-384 262.39,-390 256.39,-396 250.39,-396"/>
<text text-anchor="middle" x="212.39" y="-375.5" font-family="sans" font-size="10.00">downloadGenome</text>
</g>
<!-- 8&#45;&gt;4 -->
<g id="edge11" class="edge">
<title>8&#45;&gt;4</title>
<path fill="none" stroke="grey" stroke-width="2" d="M162.2,-361.9C141.66,-353.56 119.09,-341.3 103.39,-324 87.7,-306.7 79.27,-281.27 74.87,-262.02"/>
<polygon fill="grey" stroke="grey" stroke-width="2" points="78.26,-261.14 72.82,-252.05 71.41,-262.55 78.26,-261.14"/>
</g>
<!-- 8&#45;&gt;5 -->
<g id="edge14" class="edge">
<title>8&#45;&gt;5</title>
<path fill="none" stroke="grey" stroke-width="2" d="M262.68,-363.87C286.44,-355.61 313.82,-342.86 333.39,-324 350.99,-307.04 362.32,-281.41 368.9,-262"/>
<polygon fill="grey" stroke="grey" stroke-width="2" points="372.32,-262.82 372,-252.23 365.64,-260.7 372.32,-262.82"/>
</g>
<!-- 8&#45;&gt;6 -->
<g id="edge15" class="edge">
<title>8&#45;&gt;6</title>
<path fill="none" stroke="grey" stroke-width="2" d="M196.57,-359.7C188.82,-351.22 179.36,-340.86 170.87,-331.58"/>
<polygon fill="grey" stroke="grey" stroke-width="2" points="173.36,-329.12 164.03,-324.1 168.2,-333.85 173.36,-329.12"/>
</g>
<!-- 8&#45;&gt;7 -->
<g id="edge17" class="edge">
<title>8&#45;&gt;7</title>
<path fill="none" stroke="grey" stroke-width="2" d="M215.65,-359.87C220.25,-335.67 228.71,-291.21 234.19,-262.39"/>
<polygon fill="grey" stroke="grey" stroke-width="2" points="237.7,-262.67 236.13,-252.19 230.82,-261.36 237.7,-262.67"/>
</g>
<!-- 9 -->
<g id="node10" class="node">
<title>9</title>
<path fill="none" stroke="#56d86b" stroke-width="2" d="M311.89,-324C311.89,-324 252.89,-324 252.89,-324 246.89,-324 240.89,-318 240.89,-312 240.89,-312 240.89,-300 240.89,-300 240.89,-294 246.89,-288 252.89,-288 252.89,-288 311.89,-288 311.89,-288 317.89,-288 323.89,-294 323.89,-300 323.89,-300 323.89,-312 323.89,-312 323.89,-318 317.89,-324 311.89,-324"/>
<text text-anchor="middle" x="282.39" y="-303.5" font-family="sans" font-size="10.00">generateReads</text>
</g>
<!-- 8&#45;&gt;9 -->
<g id="edge19" class="edge">
<title>8&#45;&gt;9</title>
<path fill="none" stroke="grey" stroke-width="2" d="M229.7,-359.7C238.26,-351.14 248.74,-340.66 258.09,-331.3"/>
<polygon fill="grey" stroke="grey" stroke-width="2" points="260.69,-333.65 265.29,-324.1 255.74,-328.7 260.69,-333.65"/>
</g>
<!-- 9&#45;&gt;4 -->
<g id="edge10" class="edge">
<title>9&#45;&gt;4</title>
<path fill="none" stroke="grey" stroke-width="2" d="M240.76,-291.25C209.68,-280.99 166.71,-266.8 131.71,-255.24"/>
<polygon fill="grey" stroke="grey" stroke-width="2" points="132.65,-251.87 122.06,-252.06 130.46,-258.52 132.65,-251.87"/>
</g>
<!-- 9&#45;&gt;5 -->
<g id="edge13" class="edge">
<title>9&#45;&gt;5</title>
<path fill="none" stroke="grey" stroke-width="2" d="M305.63,-287.7C317.58,-278.8 332.32,-267.82 345.24,-258.2"/>
<polygon fill="grey" stroke="grey" stroke-width="2" points="347.5,-260.88 353.43,-252.1 343.31,-255.27 347.5,-260.88"/>
</g>
<!-- 9&#45;&gt;7 -->
<g id="edge16" class="edge">
<title>9&#45;&gt;7</title>
<path fill="none" stroke="grey" stroke-width="2" d="M271.77,-287.7C266.77,-279.56 260.7,-269.69 255.18,-260.7"/>
<polygon fill="grey" stroke="grey" stroke-width="2" points="258.12,-258.79 249.9,-252.1 252.15,-262.46 258.12,-258.79"/>
</g>
</g>
</svg>
