<?xml version="1.0" encoding="UTF-8"?>
<!DOCTYPE svg PUBLIC "-//W3C//DTD SVG 1.1//EN" "http://www.w3.org/Graphics/SVG/1.1/DTD/svg11.dtd">
<svg version="1.2" width="279.4mm" height="215.9mm" viewBox="0 0 27940 21590" preserveAspectRatio="xMidYMid" fill-rule="evenodd" stroke-width="28.222" stroke-linejoin="round" xmlns="http://www.w3.org/2000/svg" xmlns:ooo="http://xml.openoffice.org/svg/export" xmlns:xlink="http://www.w3.org/1999/xlink" xmlns:presentation="http://sun.com/xmlns/staroffice/presentation" xmlns:smil="http://www.w3.org/2001/SMIL20/" xmlns:anim="urn:oasis:names:tc:opendocument:xmlns:animation:1.0" xml:space="preserve">
 <defs class="ClipPathGroup">
  <clipPath id="presentation_clip_path" clipPathUnits="userSpaceOnUse">
   <rect x="0" y="0" width="27940" height="21590"/>
  </clipPath>
  <clipPath id="presentation_clip_path_shrink" clipPathUnits="userSpaceOnUse">
   <rect x="27" y="21" width="27885" height="21547"/>
  </clipPath>
 </defs>
 <defs class="TextShapeIndex">
  <g ooo:slide="id1" ooo:id-list="id3 id4 id5 id6 id7 id8 id9 id10 id11 id12"/>
 </defs>
 <defs class="EmbeddedBulletChars">
  <g id="bullet-char-template-57356" transform="scale(0.00048828125,-0.00048828125)">
   <path d="M 580,1141 L 1163,571 580,0 -4,571 580,1141 Z"/>
  </g>
  <g id="bullet-char-template-57354" transform="scale(0.00048828125,-0.00048828125)">
   <path d="M 8,1128 L 1137,1128 1137,0 8,0 8,1128 Z"/>
  </g>
  <g id="bullet-char-template-10146" transform="scale(0.00048828125,-0.00048828125)">
   <path d="M 174,0 L 602,739 174,1481 1456,739 174,0 Z M 1358,739 L 309,1346 659,739 1358,739 Z"/>
  </g>
  <g id="bullet-char-template-10132" transform="scale(0.00048828125,-0.00048828125)">
   <path d="M 2015,739 L 1276,0 717,0 1260,543 174,543 174,936 1260,936 717,1481 1274,1481 2015,739 Z"/>
  </g>
  <g id="bullet-char-template-10007" transform="scale(0.00048828125,-0.00048828125)">
   <path d="M 0,-2 C -7,14 -16,27 -25,37 L 356,567 C 262,823 215,952 215,954 215,979 228,992 255,992 264,992 276,990 289,987 310,991 331,999 354,1012 L 381,999 492,748 772,1049 836,1024 860,1049 C 881,1039 901,1025 922,1006 886,937 835,863 770,784 769,783 710,716 594,584 L 774,223 C 774,196 753,168 711,139 L 727,119 C 717,90 699,76 672,76 641,76 570,178 457,381 L 164,-76 C 142,-110 111,-127 72,-127 30,-127 9,-110 8,-76 1,-67 -2,-52 -2,-32 -2,-23 -1,-13 0,-2 Z"/>
  </g>
  <g id="bullet-char-template-10004" transform="scale(0.00048828125,-0.00048828125)">
   <path d="M 285,-33 C 182,-33 111,30 74,156 52,228 41,333 41,471 41,549 55,616 82,672 116,743 169,778 240,778 293,778 328,747 346,684 L 369,508 C 377,444 397,411 428,410 L 1163,1116 C 1174,1127 1196,1133 1229,1133 1271,1133 1292,1118 1292,1087 L 1292,965 C 1292,929 1282,901 1262,881 L 442,47 C 390,-6 338,-33 285,-33 Z"/>
  </g>
  <g id="bullet-char-template-9679" transform="scale(0.00048828125,-0.00048828125)">
   <path d="M 813,0 C 632,0 489,54 383,161 276,268 223,411 223,592 223,773 276,916 383,1023 489,1130 632,1184 813,1184 992,1184 1136,1130 1245,1023 1353,916 1407,772 1407,592 1407,412 1353,268 1245,161 1136,54 992,0 813,0 Z"/>
  </g>
  <g id="bullet-char-template-8226" transform="scale(0.00048828125,-0.00048828125)">
   <path d="M 346,457 C 273,457 209,483 155,535 101,586 74,649 74,723 74,796 101,859 155,911 209,963 273,989 346,989 419,989 480,963 531,910 582,859 608,796 608,723 608,648 583,586 532,535 482,483 420,457 346,457 Z"/>
  </g>
  <g id="bullet-char-template-8211" transform="scale(0.00048828125,-0.00048828125)">
   <path d="M -4,459 L 1135,459 1135,606 -4,606 -4,459 Z"/>
  </g>
  <g id="bullet-char-template-61548" transform="scale(0.00048828125,-0.00048828125)">
   <path d="M 173,740 C 173,903 231,1043 346,1159 462,1274 601,1332 765,1332 928,1332 1067,1274 1183,1159 1299,1043 1357,903 1357,740 1357,577 1299,437 1183,322 1067,206 928,148 765,148 601,148 462,206 346,322 231,437 173,577 173,740 Z"/>
  </g>
 </defs>
 <g>
  <g id="id2" class="Master_Slide">
   <g id="bg-id2" class="Background"/>
   <g id="bo-id2" class="BackgroundObjects"/>
  </g>
 </g>
 <g class="SlideGroup">
  <g>
   <g id="container-id1">
    <g id="id1" class="Slide" clip-path="url(#presentation_clip_path)">
     <g class="Page">
      <g class="com.sun.star.drawing.CustomShape">
       <g id="id3">
        <rect class="BoundingBox" stroke="none" fill="none" x="2999" y="9999" width="3004" height="1004"/>
        <path fill="rgb(114,159,207)" stroke="none" d="M 3166,10000 L 3167,10000 C 3138,10000 3109,10008 3083,10022 3058,10037 3037,10058 3022,10083 3008,10109 3000,10138 3000,10167 L 3000,10834 3000,10834 C 3000,10863 3008,10892 3022,10918 3037,10943 3058,10964 3083,10979 3109,10993 3138,11001 3167,11001 L 5834,11001 5834,11001 C 5863,11001 5892,10993 5918,10979 5943,10964 5964,10943 5979,10918 5993,10892 6001,10863 6001,10834 L 6001,10166 6001,10167 6001,10167 C 6001,10138 5993,10109 5979,10083 5964,10058 5943,10037 5918,10022 5892,10008 5863,10000 5834,10000 L 3166,10000 Z"/>
        <path fill="none" stroke="rgb(52,101,164)" d="M 3166,10000 L 3167,10000 C 3138,10000 3109,10008 3083,10022 3058,10037 3037,10058 3022,10083 3008,10109 3000,10138 3000,10167 L 3000,10834 3000,10834 C 3000,10863 3008,10892 3022,10918 3037,10943 3058,10964 3083,10979 3109,10993 3138,11001 3167,11001 L 5834,11001 5834,11001 C 5863,11001 5892,10993 5918,10979 5943,10964 5964,10943 5979,10918 5993,10892 6001,10863 6001,10834 L 6001,10166 6001,10167 6001,10167 C 6001,10138 5993,10109 5979,10083 5964,10058 5943,10037 5918,10022 5892,10008 5863,10000 5834,10000 L 3166,10000 Z"/>
       </g>
      </g>
      <g class="com.sun.star.drawing.CustomShape">
       <g id="id4">
        <rect class="BoundingBox" stroke="none" fill="none" x="8999" y="9999" width="4004" height="1004"/>
        <path fill="rgb(114,159,207)" stroke="none" d="M 9166,10000 L 9167,10000 C 9138,10000 9109,10008 9083,10022 9058,10037 9037,10058 9022,10083 9008,10109 9000,10138 9000,10167 L 9000,10834 9000,10834 C 9000,10863 9008,10892 9022,10918 9037,10943 9058,10964 9083,10979 9109,10993 9138,11001 9167,11001 L 12834,11001 12834,11001 C 12863,11001 12892,10993 12918,10979 12943,10964 12964,10943 12979,10918 12993,10892 13001,10863 13001,10834 L 13000,10166 13001,10167 13001,10167 C 13001,10138 12993,10109 12979,10083 12964,10058 12943,10037 12918,10022 12892,10008 12863,10000 12834,10000 L 9166,10000 Z"/>
        <path fill="none" stroke="rgb(52,101,164)" d="M 9166,10000 L 9167,10000 C 9138,10000 9109,10008 9083,10022 9058,10037 9037,10058 9022,10083 9008,10109 9000,10138 9000,10167 L 9000,10834 9000,10834 C 9000,10863 9008,10892 9022,10918 9037,10943 9058,10964 9083,10979 9109,10993 9138,11001 9167,11001 L 12834,11001 12834,11001 C 12863,11001 12892,10993 12918,10979 12943,10964 12964,10943 12979,10918 12993,10892 13001,10863 13001,10834 L 13000,10166 13001,10167 13001,10167 C 13001,10138 12993,10109 12979,10083 12964,10058 12943,10037 12918,10022 12892,10008 12863,10000 12834,10000 L 9166,10000 Z"/>
       </g>
      </g>
      <g class="com.sun.star.drawing.CustomShape">
       <g id="id5">
        <rect class="BoundingBox" stroke="none" fill="none" x="15999" y="9999" width="1004" height="1004"/>
        <path fill="rgb(114,159,207)" stroke="none" d="M 16166,10000 L 16167,10000 C 16138,10000 16109,10008 16083,10022 16058,10037 16037,10058 16022,10083 16008,10109 16000,10138 16000,10167 L 16000,10834 16000,10834 C 16000,10863 16008,10892 16022,10918 16037,10943 16058,10964 16083,10979 16109,10993 16138,11001 16167,11001 L 16834,11001 16834,11001 C 16863,11001 16892,10993 16918,10979 16943,10964 16964,10943 16979,10918 16993,10892 17001,10863 17001,10834 L 17001,10166 17001,10167 17001,10167 C 17001,10138 16993,10109 16979,10083 16964,10058 16943,10037 16918,10022 16892,10008 16863,10000 16834,10000 L 16166,10000 Z"/>
        <path fill="none" stroke="rgb(52,101,164)" d="M 16166,10000 L 16167,10000 C 16138,10000 16109,10008 16083,10022 16058,10037 16037,10058 16022,10083 16008,10109 16000,10138 16000,10167 L 16000,10834 16000,10834 C 16000,10863 16008,10892 16022,10918 16037,10943 16058,10964 16083,10979 16109,10993 16138,11001 16167,11001 L 16834,11001 16834,11001 C 16863,11001 16892,10993 16918,10979 16943,10964 16964,10943 16979,10918 16993,10892 17001,10863 17001,10834 L 17001,10166 17001,10167 17001,10167 C 17001,10138 16993,10109 16979,10083 16964,10058 16943,10037 16918,10022 16892,10008 16863,10000 16834,10000 L 16166,10000 Z"/>
       </g>
      </g>
      <g class="com.sun.star.drawing.CustomShape">
       <g id="id6">
        <rect class="BoundingBox" stroke="none" fill="none" x="19999" y="9999" width="5004" height="1004"/>
        <path fill="rgb(114,159,207)" stroke="none" d="M 20166,10000 L 20167,10000 C 20138,10000 20109,10008 20083,10022 20058,10037 20037,10058 20022,10083 20008,10109 20000,10138 20000,10167 L 20000,10834 20000,10834 C 20000,10863 20008,10892 20022,10918 20037,10943 20058,10964 20083,10979 20109,10993 20138,11001 20167,11001 L 24834,11001 24834,11001 C 24863,11001 24892,10993 24918,10979 24943,10964 24964,10943 24979,10918 24993,10892 25001,10863 25001,10834 L 25001,10166 25001,10167 25001,10167 C 25001,10138 24993,10109 24979,10083 24964,10058 24943,10037 24918,10022 24892,10008 24863,10000 24834,10000 L 20166,10000 Z"/>
        <path fill="none" stroke="rgb(52,101,164)" d="M 20166,10000 L 20167,10000 C 20138,10000 20109,10008 20083,10022 20058,10037 20037,10058 20022,10083 20008,10109 20000,10138 20000,10167 L 20000,10834 20000,10834 C 20000,10863 20008,10892 20022,10918 20037,10943 20058,10964 20083,10979 20109,10993 20138,11001 20167,11001 L 24834,11001 24834,11001 C 24863,11001 24892,10993 24918,10979 24943,10964 24964,10943 24979,10918 24993,10892 25001,10863 25001,10834 L 25001,10166 25001,10167 25001,10167 C 25001,10138 24993,10109 24979,10083 24964,10058 24943,10037 24918,10022 24892,10008 24863,10000 24834,10000 L 20166,10000 Z"/>
       </g>
      </g>
      <g class="com.sun.star.drawing.ConnectorShape">
       <g id="id7">
        <rect class="BoundingBox" stroke="none" fill="none" x="5999" y="10350" width="3002" height="301"/>
        <path fill="none" stroke="rgb(52,101,164)" d="M 6000,10500 L 8570,10500"/>
        <path fill="rgb(52,101,164)" stroke="none" d="M 9000,10500 L 8550,10350 8550,10650 9000,10500 Z"/>
       </g>
      </g>
      <g class="com.sun.star.drawing.ConnectorShape">
       <g id="id8">
        <rect class="BoundingBox" stroke="none" fill="none" x="12999" y="10350" width="3002" height="301"/>
        <path fill="none" stroke="rgb(52,101,164)" d="M 13000,10500 L 15570,10500"/>
        <path fill="rgb(52,101,164)" stroke="none" d="M 16000,10500 L 15550,10350 15550,10650 16000,10500 Z"/>
       </g>
      </g>
      <g class="com.sun.star.drawing.ConnectorShape">
       <g id="id9">
        <rect class="BoundingBox" stroke="none" fill="none" x="16999" y="10350" width="3002" height="301"/>
        <path fill="none" stroke="rgb(52,101,164)" d="M 17000,10500 L 19570,10500"/>
        <path fill="rgb(52,101,164)" stroke="none" d="M 20000,10500 L 19550,10350 19550,10650 20000,10500 Z"/>
       </g>
      </g>
      <g class="com.sun.star.drawing.ConnectorShape">
       <g id="id10">
        <rect class="BoundingBox" stroke="none" fill="none" x="10999" y="8404" width="11502" height="1598"/>
        <path fill="none" stroke="rgb(52,101,164)" d="M 11000,10000 C 11000,7929 21219,7936 22391,9664"/>
        <path fill="rgb(52,101,164)" stroke="none" d="M 22500,10000 L 22496,9526 22212,9623 22500,10000 Z"/>
       </g>
      </g>
      <g class="com.sun.star.drawing.ConnectorShape">
       <g id="id11">
        <rect class="BoundingBox" stroke="none" fill="none" x="4499" y="8545" width="6528" height="1457"/>
        <path fill="none" stroke="rgb(0,169,51)" d="M 4500,10000 C 4500,9943 4505,9887 4515,9834"/>
        <path fill="none" stroke="rgb(0,169,51)" d="M 4534,9754 C 4549,9703 4569,9652 4593,9604"/>
        <path fill="none" stroke="rgb(0,169,51)" d="M 4632,9532 C 4659,9489 4689,9447 4723,9406"/>
        <path fill="none" stroke="rgb(0,169,51)" d="M 4775,9348 C 4811,9310 4851,9273 4893,9237"/>
        <path fill="none" stroke="rgb(0,169,51)" d="M 4959,9185 C 5003,9152 5051,9120 5101,9090"/>
        <path fill="none" stroke="rgb(0,169,51)" d="M 5165,9051 C 5210,9026 5255,9002 5303,8979"/>
        <path fill="none" stroke="rgb(0,169,51)" d="M 5375,8945 C 5425,8923 5475,8902 5528,8881"/>
        <path fill="none" stroke="rgb(0,169,51)" d="M 5607,8852 C 5659,8833 5712,8815 5766,8798"/>
        <path fill="none" stroke="rgb(0,169,51)" d="M 5840,8776 C 5890,8761 5941,8747 5992,8734"/>
        <path fill="none" stroke="rgb(0,169,51)" d="M 6070,8715 C 6122,8703 6175,8691 6229,8680"/>
        <path fill="none" stroke="rgb(0,169,51)" d="M 6310,8664 C 6365,8654 6420,8644 6476,8635"/>
        <path fill="none" stroke="rgb(0,169,51)" d="M 6557,8622 C 6609,8615 6661,8608 6714,8601"/>
        <path fill="none" stroke="rgb(0,169,51)" d="M 6793,8592 C 6846,8586 6900,8581 6954,8576"/>
        <path fill="none" stroke="rgb(0,169,51)" d="M 7035,8569 C 7089,8565 7143,8561 7198,8558"/>
        <path fill="none" stroke="rgb(0,169,51)" d="M 7280,8554 C 7335,8552 7389,8550 7444,8548"/>
        <path fill="none" stroke="rgb(0,169,51)" d="M 7525,8547 C 7579,8546 7633,8546 7687,8546"/>
        <path fill="none" stroke="rgb(0,169,51)" d="M 7768,8547 C 7822,8548 7876,8549 7930,8551"/>
        <path fill="none" stroke="rgb(0,169,51)" d="M 8011,8554 C 8065,8557 8119,8560 8172,8563"/>
        <path fill="none" stroke="rgb(0,169,51)" d="M 8253,8569 C 8308,8573 8362,8577 8417,8583"/>
        <path fill="none" stroke="rgb(0,169,51)" d="M 8499,8591 C 8553,8597 8607,8603 8661,8610"/>
        <path fill="none" stroke="rgb(0,169,51)" d="M 8742,8621 C 8795,8628 8848,8637 8901,8645"/>
        <path fill="none" stroke="rgb(0,169,51)" d="M 8980,8658 C 9032,8668 9084,8677 9135,8688"/>
        <path fill="none" stroke="rgb(0,169,51)" d="M 9216,8705 C 9272,8716 9326,8729 9380,8742"/>
        <path fill="none" stroke="rgb(0,169,51)" d="M 9461,8763 C 9514,8777 9566,8791 9617,8806"/>
        <path fill="none" stroke="rgb(0,169,51)" d="M 9693,8830 C 9744,8845 9793,8862 9841,8879"/>
        <path fill="none" stroke="rgb(0,169,51)" d="M 9913,8905 C 9968,8926 10021,8948 10073,8970"/>
        <path fill="none" stroke="rgb(0,169,51)" d="M 10150,9005 C 10200,9028 10249,9053 10296,9078"/>
        <path fill="none" stroke="rgb(0,169,51)" d="M 10365,9117 C 10410,9143 10453,9170 10493,9198"/>
        <path fill="none" stroke="rgb(0,169,51)" d="M 10560,9245 C 10607,9281 10651,9317 10692,9356"/>
        <path fill="none" stroke="rgb(0,169,51)" d="M 10750,9414 C 10787,9453 10820,9494 10849,9536"/>
        <path fill="none" stroke="rgb(0,169,51)" d="M 10890,9599 C 10893,9605 10897,9612 10900,9618"/>
        <path fill="rgb(0,169,51)" stroke="none" d="M 11000,10000 L 11026,9526 10736,9606 11000,10000 Z"/>
       </g>
      </g>
      <g class="com.sun.star.drawing.ConnectorShape">
       <g id="id12">
        <rect class="BoundingBox" stroke="none" fill="none" x="4499" y="7202" width="18080" height="2800"/>
        <path fill="none" stroke="rgb(0,169,51)" d="M 4500,10000 C 4500,9946 4504,9893 4511,9840"/>
        <path fill="none" stroke="rgb(0,169,51)" d="M 4524,9762 C 4535,9711 4549,9660 4567,9610"/>
        <path fill="none" stroke="rgb(0,169,51)" d="M 4596,9535 C 4617,9486 4641,9438 4669,9390"/>
        <path fill="none" stroke="rgb(0,169,51)" d="M 4713,9319 C 4743,9272 4777,9226 4815,9181"/>
        <path fill="none" stroke="rgb(0,169,51)" d="M 4872,9113 C 4910,9071 4951,9030 4995,8989"/>
        <path fill="none" stroke="rgb(0,169,51)" d="M 5046,8942 C 5081,8911 5117,8881 5155,8851"/>
        <path fill="none" stroke="rgb(0,169,51)" d="M 5213,8806 C 5253,8776 5294,8747 5336,8718"/>
        <path fill="none" stroke="rgb(0,169,51)" d="M 5401,8675 C 5445,8646 5490,8618 5537,8591"/>
        <path fill="none" stroke="rgb(0,169,51)" d="M 5608,8550 C 5656,8522 5705,8496 5756,8469"/>
        <path fill="none" stroke="rgb(0,169,51)" d="M 5833,8430 C 5885,8404 5938,8378 5993,8353"/>
        <path fill="none" stroke="rgb(0,169,51)" d="M 6075,8316 C 6131,8291 6188,8267 6247,8243"/>
        <path fill="none" stroke="rgb(0,169,51)" d="M 6319,8214 C 6363,8196 6409,8179 6455,8161"/>
        <path fill="none" stroke="rgb(0,169,51)" d="M 6525,8135 C 6571,8118 6619,8101 6667,8085"/>
        <path fill="none" stroke="rgb(0,169,51)" d="M 6739,8060 C 6788,8044 6837,8028 6887,8012"/>
        <path fill="none" stroke="rgb(0,169,51)" d="M 6962,7988 C 7013,7972 7064,7957 7115,7942"/>
        <path fill="none" stroke="rgb(0,169,51)" d="M 7193,7919 C 7245,7904 7298,7890 7351,7875"/>
        <path fill="none" stroke="rgb(0,169,51)" d="M 7432,7854 C 7486,7839 7540,7825 7595,7811"/>
        <path fill="none" stroke="rgb(0,169,51)" d="M 7678,7791 C 7733,7777 7789,7764 7846,7751"/>
        <path fill="none" stroke="rgb(0,169,51)" d="M 7931,7732 C 7988,7719 8045,7706 8103,7694"/>
        <path fill="none" stroke="rgb(0,169,51)" d="M 8190,7676 C 8239,7665 8289,7655 8339,7646"/>
        <path fill="none" stroke="rgb(0,169,51)" d="M 8414,7631 C 8464,7621 8514,7612 8565,7602"/>
        <path fill="none" stroke="rgb(0,169,51)" d="M 8642,7588 C 8693,7579 8744,7570 8796,7561"/>
        <path fill="none" stroke="rgb(0,169,51)" d="M 8874,7548 C 8926,7539 8978,7530 9031,7522"/>
        <path fill="none" stroke="rgb(0,169,51)" d="M 9110,7510 C 9163,7501 9216,7493 9269,7485"/>
        <path fill="none" stroke="rgb(0,169,51)" d="M 9350,7474 C 9403,7466 9457,7458 9511,7451"/>
        <path fill="none" stroke="rgb(0,169,51)" d="M 9593,7440 C 9647,7433 9701,7426 9756,7419"/>
        <path fill="none" stroke="rgb(0,169,51)" d="M 9839,7409 C 9894,7402 9949,7395 10004,7389"/>
        <path fill="none" stroke="rgb(0,169,51)" d="M 10088,7380 C 10144,7373 10199,7367 10256,7361"/>
        <path fill="none" stroke="rgb(0,169,51)" d="M 10340,7353 C 10396,7347 10453,7341 10509,7336"/>
        <path fill="none" stroke="rgb(0,169,51)" d="M 10589,7328 C 10641,7324 10693,7319 10746,7314"/>
        <path fill="none" stroke="rgb(0,169,51)" d="M 10825,7308 C 10878,7303 10930,7299 10983,7295"/>
        <path fill="none" stroke="rgb(0,169,51)" d="M 11063,7289 C 11116,7285 11169,7281 11222,7277"/>
        <path fill="none" stroke="rgb(0,169,51)" d="M 11302,7272 C 11356,7268 11409,7265 11463,7262"/>
        <path fill="none" stroke="rgb(0,169,51)" d="M 11543,7257 C 11597,7254 11651,7251 11705,7248"/>
        <path fill="none" stroke="rgb(0,169,51)" d="M 11786,7244 C 11840,7241 11894,7238 11948,7236"/>
        <path fill="none" stroke="rgb(0,169,51)" d="M 12029,7232 C 12084,7230 12138,7228 12192,7226"/>
        <path fill="none" stroke="rgb(0,169,51)" d="M 12274,7223 C 12328,7221 12383,7219 12437,7217"/>
        <path fill="none" stroke="rgb(0,169,51)" d="M 12519,7215 C 12574,7214 12628,7212 12683,7211"/>
        <path fill="none" stroke="rgb(0,169,51)" d="M 12765,7209 C 12820,7208 12875,7207 12929,7207"/>
        <path fill="none" stroke="rgb(0,169,51)" d="M 13012,7206 C 13066,7205 13121,7205 13175,7204"/>
        <path fill="none" stroke="rgb(0,169,51)" d="M 13257,7204 C 13311,7203 13365,7203 13419,7203"/>
        <path fill="none" stroke="rgb(0,169,51)" d="M 13501,7204 C 13555,7204 13609,7204 13664,7205"/>
        <path fill="none" stroke="rgb(0,169,51)" d="M 13745,7205 C 13799,7206 13854,7207 13908,7208"/>
        <path fill="none" stroke="rgb(0,169,51)" d="M 13989,7209 C 14044,7210 14098,7211 14152,7212"/>
        <path fill="none" stroke="rgb(0,169,51)" d="M 14233,7214 C 14287,7216 14341,7217 14395,7219"/>
        <path fill="none" stroke="rgb(0,169,51)" d="M 14476,7222 C 14530,7223 14584,7225 14638,7227"/>
        <path fill="none" stroke="rgb(0,169,51)" d="M 14719,7231 C 14773,7233 14827,7235 14880,7238"/>
        <path fill="none" stroke="rgb(0,169,51)" d="M 14961,7241 C 15015,7244 15068,7247 15122,7250"/>
        <path fill="none" stroke="rgb(0,169,51)" d="M 15202,7254 C 15255,7257 15309,7260 15362,7264"/>
        <path fill="none" stroke="rgb(0,169,51)" d="M 15442,7269 C 15495,7272 15548,7276 15601,7279"/>
        <path fill="none" stroke="rgb(0,169,51)" d="M 15680,7285 C 15736,7289 15792,7293 15847,7298"/>
        <path fill="none" stroke="rgb(0,169,51)" d="M 15931,7304 C 15987,7309 16042,7313 16098,7318"/>
        <path fill="none" stroke="rgb(0,169,51)" d="M 16181,7326 C 16236,7331 16291,7336 16346,7341"/>
        <path fill="none" stroke="rgb(0,169,51)" d="M 16428,7349 C 16483,7354 16538,7360 16592,7366"/>
        <path fill="none" stroke="rgb(0,169,51)" d="M 16674,7375 C 16728,7380 16782,7386 16836,7393"/>
        <path fill="none" stroke="rgb(0,169,51)" d="M 16917,7402 C 16971,7408 17025,7415 17078,7421"/>
        <path fill="none" stroke="rgb(0,169,51)" d="M 17158,7432 C 17211,7438 17264,7445 17317,7452"/>
        <path fill="none" stroke="rgb(0,169,51)" d="M 17396,7463 C 17448,7470 17500,7478 17553,7485"/>
        <path fill="none" stroke="rgb(0,169,51)" d="M 17630,7497 C 17682,7504 17734,7512 17785,7520"/>
        <path fill="none" stroke="rgb(0,169,51)" d="M 17862,7532 C 17913,7540 17964,7549 18015,7557"/>
        <path fill="none" stroke="rgb(0,169,51)" d="M 18091,7570 C 18147,7580 18203,7589 18258,7599"/>
        <path fill="none" stroke="rgb(0,169,51)" d="M 18344,7615 C 18401,7625 18457,7636 18514,7647"/>
        <path fill="none" stroke="rgb(0,169,51)" d="M 18598,7663 C 18653,7674 18709,7686 18764,7697"/>
        <path fill="none" stroke="rgb(0,169,51)" d="M 18846,7715 C 18901,7726 18955,7738 19009,7750"/>
        <path fill="none" stroke="rgb(0,169,51)" d="M 19089,7768 C 19142,7781 19195,7793 19248,7806"/>
        <path fill="none" stroke="rgb(0,169,51)" d="M 19326,7825 C 19378,7838 19429,7851 19481,7864"/>
        <path fill="none" stroke="rgb(0,169,51)" d="M 19557,7884 C 19607,7898 19657,7911 19707,7925"/>
        <path fill="none" stroke="rgb(0,169,51)" d="M 19781,7946 C 19830,7960 19879,7974 19927,7989"/>
        <path fill="none" stroke="rgb(0,169,51)" d="M 19999,8011 C 20047,8025 20094,8040 20140,8055"/>
        <path fill="none" stroke="rgb(0,169,51)" d="M 20214,8079 C 20273,8099 20331,8119 20388,8139"/>
        <path fill="none" stroke="rgb(0,169,51)" d="M 20473,8169 C 20529,8190 20584,8210 20638,8232"/>
        <path fill="none" stroke="rgb(0,169,51)" d="M 20719,8263 C 20772,8285 20824,8307 20875,8329"/>
        <path fill="none" stroke="rgb(0,169,51)" d="M 20951,8362 C 21002,8384 21051,8407 21099,8430"/>
        <path fill="none" stroke="rgb(0,169,51)" d="M 21170,8465 C 21218,8488 21264,8512 21308,8536"/>
        <path fill="none" stroke="rgb(0,169,51)" d="M 21375,8572 C 21419,8597 21462,8621 21503,8646"/>
        <path fill="none" stroke="rgb(0,169,51)" d="M 21565,8684 C 21605,8709 21644,8735 21682,8761"/>
        <path fill="none" stroke="rgb(0,169,51)" d="M 21754,8811 C 21805,8848 21855,8886 21901,8924"/>
        <path fill="none" stroke="rgb(0,169,51)" d="M 21970,8983 C 22014,9022 22056,9062 22095,9102"/>
        <path fill="none" stroke="rgb(0,169,51)" d="M 22151,9163 C 22188,9204 22222,9246 22253,9288"/>
        <path fill="none" stroke="rgb(0,169,51)" d="M 22297,9352 C 22325,9395 22351,9439 22373,9483"/>
        <path fill="none" stroke="rgb(0,169,51)" d="M 22405,9550 C 22423,9592 22439,9635 22452,9678"/>
        <path fill="rgb(0,169,51)" stroke="none" d="M 22500,10000 L 22578,9532 22282,9579 22500,10000 Z"/>
       </g>
      </g>
     </g>
    </g>
   </g>
  </g>
 </g>
</svg>